<svg xmlns="http://www.w3.org/2000/svg" data-name="Privacy Icon by Gregor Cresnar from Noun Project (CC BY 3.0)" viewBox="0 0 96 96" x="0px" y="0px"><defs><style>.cls-1 {stroke-width: 0px;}</style></defs><path class="cls-1" d="m77.13,53.74l-8-4c-.96-.48-2.05-.72-3.13-.72s-2.17.24-3.13.72l-8,4c-2.39,1.19-3.87,3.59-3.87,6.26v6c0,8.27,6.73,15,15,15s15-6.73,15-15v-6c0-2.67-1.48-5.07-3.87-6.26Zm-2.13,12.26c0,4.96-4.04,9-9,9s-9-4.04-9-9v-6.62l9-4.5,9,4.5v6.62Z"/><path class="cls-1" d="m62.01,38.37c.63.49,1.42.7,2.21.6.8-.1,1.5-.5,1.99-1.14.49-.63.71-1.42.61-2.21-1.15-9.12-8.93-16.26-18.08-16.61-.25,0-.5-.01-.74-.01-10.48,0-19,8.52-19,19,0,4.08,1.35,8.14,3.81,11.41l.68.91-.99.56c-1.91,1.08-3.8,2.34-5.61,3.75-2.7,2.1-4.85,4.87-6.21,8-1.12,2.59-1.69,5.33-1.69,8.15v1.23c0,4.96,4.04,9,9,9h12c1.65,0,3-1.35,3-3s-1.35-3-3-3h-12c-1.65,0-3-1.35-3-3v-1.23c0-1.99.4-3.93,1.2-5.75.96-2.21,2.48-4.17,4.39-5.65,3.02-2.35,6.18-4.17,9.4-5.42,1.04-.4,1.77-1.34,1.9-2.45.13-1.11-.36-2.19-1.27-2.82-3.51-2.43-5.61-6.42-5.61-10.68,0-7.17,5.83-13,13-13,.17,0,.35,0,.51,0,6.26.24,11.57,5.13,12.36,11.37h0c.1.8.5,1.51,1.14,2Z"/></svg>