<svg xmlns="http://www.w3.org/2000/svg" viewBox="0 0 96 96" x="0px" y="0px"><defs><style>.cls-1{fill:#ffffff;}</style></defs><title>Decentralized</title><g data-name="Decentralized Created by Javad from the Noun Project"><path class="cls-1" d="M82.15,4.05a6,6,0,0,0-6,6,5.92,5.92,0,0,0,1.24,3.63L49.22,41.79a8,8,0,0,0-7.95-1.08L30.11,21.29a1,1,0,1,0-1.73,1L39.53,41.71a8,8,0,0,0-3.21,6.4,8.09,8.09,0,0,0,.4,2.47L17,60.87a1,1,0,0,0-.43,1.35,1,1,0,0,0,.89.54,1,1,0,0,0,.46-.11L37.58,52.38a8,8,0,0,0,6.74,3.73A7.33,7.33,0,0,0,45.73,56l9.39,25.67a6,6,0,0,0,.39,10.68,5.86,5.86,0,0,0,2.52.56A6,6,0,1,0,57,81L47.64,55.38a8,8,0,0,0,3.85-3.74l20.34,7.24a1,1,0,0,0,.33.06A1,1,0,0,0,72.5,57L52.15,49.75a8.07,8.07,0,0,0,.17-1.64,8,8,0,0,0-1.69-4.91L78.85,15.05a5.92,5.92,0,0,0,3.3,1,6,6,0,0,0,0-12ZM58,82.88a4,4,0,0,1,3.75,2.62,4,4,0,0,1-2.38,5.14A4,4,0,1,1,58,82.88ZM44.32,53.11a5,5,0,1,1,5-5A5,5,0,0,1,44.32,53.11ZM82.15,14.05a4,4,0,1,1,4-4A4,4,0,0,1,82.15,14.05Z"/><path class="cls-1" d="M28.87,19.3a4,4,0,1,0-5.64-.4A4,4,0,0,0,28.87,19.3Z"/><path class="cls-1" d="M9.34,61.4A4,4,0,1,0,15,62,4,4,0,0,0,9.34,61.4Z"/><path class="cls-1" d="M78.61,56.23A4,4,0,1,0,82,60.78,4,4,0,0,0,78.61,56.23Z"/></g></svg>
