<svg xmlns="http://www.w3.org/2000/svg" data-name="Layer 1" viewBox="0 0 96 96" x="0px" y="0px"><defs><style>
      .cls-1 {
        fill-rule: evenodd;
      }
    </style></defs><path class="cls-1" d="m89.094,74.183h-16.664v4.795h17.359v-4.795h-.696Zm-4.851-36.165l6.187-3.572-11.386-6.573c-.029-.014-.058-.03-.086-.047l-11.462-6.618v26.479l5.828-3.366.231-.527v-8.019c0-2.467,1.425-4.055,3.248-4.752.658-.252,1.378-.378,2.103-.378.724,0,1.444.125,2.102.377,1.817.696,3.235,2.28,3.235,4.754v2.243h0Zm-8.264,7.996l.512-1.168c.117-.219.184-.47.184-.736v-8.335c0-.96.543-1.573,1.237-1.839.319-.122.659-.183.993-.184.335,0,.675.061.992.182.688.263,1.224.875,1.224,1.84v15.84c0,.862.698,1.56,1.56,1.56s1.56-.698,1.56-1.56v-10.003l5.055-2.919,3.743,6.497c.315.546.457,1.113.473,1.694.017.647-.114,1.339-.338,2.059l-5.547,17.861c-.071.179-.111.374-.111.579v3.679h-12.817v-3.439h-.007c0-.263-.066-.53-.207-.774l-3.826-6.635c-.17-.295-.264-.6-.28-.904-.017-.307.044-.625.182-.941l5.392-12.303c.008-.018.016-.036.023-.054h0Zm-16.231,28.226h-.015s-15.749,0-15.749,0h-.015s-.808,0-.808,0v4.739h17.155v-4.739h-.569Zm-4.793-37.955v3.716c.536-.28,1.049-.6,1.535-.957,1.069-.786,2.001-1.748,2.752-2.842h0c1.223-1.855,1.935-4.079,1.935-6.474,0-3.25-1.318-6.193-3.447-8.323-2.13-2.129-5.072-3.447-8.323-3.447s-6.192,1.318-8.321,3.447c-2.129,2.13-3.447,5.072-3.447,8.322,0,2.691.9,5.169,2.415,7.149,1.139,1.488,2.626,2.697,4.339,3.504v-4.096c0-2.438,1.409-4.007,3.21-4.696.65-.249,1.362-.374,2.078-.374.715,0,1.427.124,2.077.373,1.796.688,3.198,2.253,3.198,4.698h0Zm0,15.653v-8.432c2.055-.829,3.882-2.104,5.361-3.703l3.335,5.787c.311.539.45,1.099.466,1.674.017.64-.113,1.324-.334,2.036l-5.482,17.65c-.07.177-.109.37-.109.572v3.636h-12.665v-3.398h-.006c0-.26-.066-.524-.204-.765l-3.781-6.557c-.168-.291-.261-.595-.278-.898-.016-.301.043-.613.178-.925l5.858-13.365c.116-.217.182-.464.182-.727v-8.236c0-.949.536-1.555,1.222-1.818.315-.12.651-.181.982-.181s.667.06.981.18c.68.26,1.21.865,1.21,1.819v15.653c0,.852.69,1.542,1.542,1.542s1.542-.69,1.542-1.542h0Zm-24.153,22.339h-.015s-15.629,0-15.629,0h-.015s-.673,0-.673,0v4.702h17.023v-4.702h-.691Zm-4.756-35.46l5.963-3.442-11.173-19.352L1.484,27.195l11.17,19.349,2.684-1.55.226-.517v-7.864c0-2.42,1.398-3.976,3.185-4.66.645-.247,1.351-.371,2.062-.371.71,0,1.416.123,2.061.37,1.782.683,3.173,2.235,3.173,4.661v2.203h0Zm-8.103,7.837l.502-1.146c.115-.215.181-.461.181-.721v-8.173c0-.942.532-1.543,1.213-1.803.313-.12.646-.18.974-.18.328,0,.662.059.973.179.674.258,1.2.858,1.2,1.805v15.533c0,.845.685,1.53,1.53,1.53s1.53-.685,1.53-1.53v-9.812l4.956-2.861,3.673,6.373c.308.535.447,1.091.462,1.661.017.635-.112,1.314-.331,2.02l-5.44,17.515c-.07.176-.109.367-.109.567v3.608h-12.569v-3.372h-.006c0-.258-.065-.519-.203-.759l-3.751-6.506c-.167-.289-.259-.59-.275-.891-.016-.299.043-.609.178-.918l5.287-12.064c.008-.017.016-.035.023-.053Z" fill="#FFFFFF"/></svg>